<mxfile host="Electron" modified="2019-10-15T10:38:40.800Z" agent="Mozilla/5.0 (Macintosh; Intel Mac OS X 10_14_6) AppleWebKit/537.36 (KHTML, like Gecko) draw.io/12.1.0 Chrome/76.0.3809.139 Electron/6.0.7 Safari/537.36" etag="oyZpabG12JaGdzuaea_2" version="12.1.0" type="device" pages="4"><diagram id="2rUZ2z_cpMbh67YxnHrP" name="compliancy">3Vttk9o4Ev41VG0+kPIr4I8DDLu5ZPemMrm75KOwBXgjLCILBvLrV5IlW7Y8wIDBzs1Uzdittix3tx493bJ77mS9/52AzepPHEHUc6xo33OnPcexbWvA/nHJIZMM3WEmWJI4kkqF4Dn+CaXQktJtHMG0pEgxRjTelIUhThIY0pIMEIJfymoLjMp33YAlNATPIUCm9H9xRFeZdORbhfwPGC9XNH9g2bIGSlkK0hWI8Ismch977oRgTLOj9X4CETeeskt23eyV1nxgBCb0nAvSJwdt/jXe/1gtf4L/WH99RTTte37WzQ6grXzih59bAploCnf/ZkbmvQ4Qu8N4TtjRkh/BPYVJGuNEPhk9KHMRvE0iyO9oM72XVUzh8waEvPWFBQiTregayWaA4mXCjklmv/EiRmiCESaiL/dxwH+ZPKUEf4day8jiv/wKnFBNnv0wuWkbaa4dJBTuNZG01e8QryElB6YiW0cj6TcZuJ4rz1+KMHCVb1d6CAykEMjQW+Z9F95hB9JBb3GWd9JZN3THwue/XXGHHZzpDte6mTvc19zRhBcQXHTOCTmWKSeMapzg1znhZnPC9IFhfhgxRJenmNAVXuIEoMdCOi4cxA1Y6HzCeCPd8jek9CCXJ7CluOy0V22b4i0J4ZHxqzUNkCWkR/TkY/FnOeopAhGg8a68ejVu9WEnrM6MTQ5f5fXi5Bs/ee+r0+leb5we5NntvTVo2lvi0gdCwEFT2OA4oanW8xMXFNPVq2Cm61YYwgl9r8wo2EE2giJu8ke5AkUHRiz9N6XpZ5jSCYq5h6qRxcCKlgOBwDT+CeZCgTtYGoZp++OeP9VQNWQdQoaMYw56MaN5D7JhHUeRiEoE5hCNQfh9KeJTx17xUxs/RydJFV5zsipHXOKDdbBrvXfZAlhyjcKDtwWQ4XHVjex1VL4eLxYppAZYNOB02+kEgNweCGy7U7jtmcD9CS8fmM0ObDakXZpwCU7g+XMtD6gGJpvj+GXYbGaqDdzyDA7uNtkMn1ezhmp+N8HrDYpBEnK7zLZJSFmudyy7sE7z2oywqhzab4aQuhVCmpN9jZDadVnBzfiobeZovxiynQ1tbqegzTbDXIe264L3BqHqea2Hqpk7PeEXSMYfOmcsvybRvK+xTJZ6CkQfiyKZ9SdIwBKuxeJqTQEF7N8zxYQXH9u2dVDF0JrKyn1tbdYk24DQ+2eXzpnIO2oaeOsZy9CvTx/zLrKByqua5y3eyIiD/5PMUAX41WS1z1JD+zapoc0jvZXk0MwNP28RbH8FH1iVvOCeZBNs4o/Bl78/fPzortFs4n349tdKMfs74+I+pl+1Yw0V2VkBivxEYWK4Jbu8AH45QI7OBEh7eBOEfGv9zbYGbyvAGRd4w+MXBNWK3bDZil191FnGBKUstWM8ZwDWfNol83Qj/JxRonQDEkWKejOrF8x6gdcLbNXOBlFSMZhUN3BeFiQIpoCnw0zSD+rX+2NztRHMd4ZqW136vRnIr64jzr0Q31zoT5Hrz4/PX1jzw1P7uYrBn9uvQQSGPVtZKHICXXDmb3rbKwQ6ZfhOH/i7G3y6IpCmcajEsxgV3UdKSU5NJpHtV+7yDM9cZ26zzWOifFDJhu37EnHHTMgI3LCIMDnZr1AqVrOjESQejYJGsLdfQZF8mHfg226X0ME6gQ53mNaN79lcxh5tuzLtvRPssXqBehPptQvc6js1g2bZY320mQVyBhEh539WziCzv8LEbE6GMeJc4LcXPrQKyUwZRLAwZGbdssWWL7AgguRdN4DpgtKAmoxNbGTZzsiuULpmsGoQlOPmbkTRNvcv37KXVW2bEcw8m0Sd45D5Ct8ah3RMTt7GKnE52juDM9HeabxYcN0LbWZ2Pd/GKHoFHhEEKRTgwMIcUgGFcAeTrnCzSyBQhV4TBM1y1I7sodTTtdXRUp/3o2pv34Z6hmQXh1zjD4y/t19FrUKd0z7UBW0g26X8V5Vf1fE55dcrULQ1znydS02ekG+3Wj+2cNv+tmv+PUEb86C2Qum1Ow16ze+y1j6m2/WIPjZqLaA/fOFF9yeCdzHLeK6L57cWVi7YOysFe/tbZ8NfCfMvD3bfDPZj4dWRYK+rX+t7SZrbBj+2WHwnwzK5/gKsY8SM9qCTZf4NjMf9ANEOcu5qtAjtSd01gMQAva6fgiTtp5DECy4SDWIcqQgAPgprs8+b5vn86ofZBOMaZDn/zeGvOsg+HS8ojn3rXfGIxXaYX/3g0mfG5VLxNWF+poztC3MzyZQf8859blGfV1NO6Nq5rgq/i7pxim4yp+Yt/A93LROMgVBYEbjI27Nn540rSjm99bnRsls6syU3AVwzn75n+U8u92dibH6QnQVe9s8udyhulgWSebfMQepuwkm2lT0A/zMRR1bl3Pbdd0ok+w+3JNU7EhkWR+uSlh68uaoYEA88rpYPTEZkXVNlNHpwmncTIZrfK10D6bVCjaeL/Sz/y/XER2llNbGy9FOxtOR6CSZrOczS8HgA58fS6ys3sxTf6KnxxKcJu+38Da6reTxHTEPTCC/ZSlMzbE1zzbAz1mxg9rUBURQny2MqUZxuENC8GycoTmB/jnD4vaIrGlaVodnv3aPmFCEvAl6Euwx2VOjOMjvXeUA0g2qrU2PlrIaQTce1wJ2pLU6LSgKXZQ+jCtzZtT7v1J9mQayiStUVuLBcWeCNsrbAG2sJCtcRFKU8ZMlK6jBMrx/UAJmBcfmlObwVa6HPyU2hKYrvqp9D0SBep1RyUES4tlpWbiFLDeX+9afQehcv8db1rmoQJkSL09KDlBskgOvC8rKiOqiuP6+8zdH9KtQxgthIEapShb+yBNVomekYa9T41y+ca7SfWNe8aN9G9nF5FlH3TcixwOlIGlHzScjJPEKnM4KfJ1iEsMHC1StvlXJrCkPCJ6X5DtvRl92uH89Zb9Z1et5W3nLJ56g2bwfNTNueXNI00CwWM/fxHw==</diagram><diagram name="hooks" id="dv_ZvV6JMlQWwNKFxyX4">&#xa;    <mxGraphModel dx="1132" dy="672" grid="1" gridSize="10" guides="1" tooltips="1" connect="1" arrows="1" fold="1" page="1" pageScale="1" pageWidth="850" pageHeight="1100" math="0" shadow="0">&#xa;      <root>&#xa;        <mxCell id="dQZulvzeQqhADhMms8IM-0"/>&#xa;        <mxCell id="dQZulvzeQqhADhMms8IM-1" parent="dQZulvzeQqhADhMms8IM-0"/>&#xa;        <mxCell id="dQZulvzeQqhADhMms8IM-2" value="Azure DevOps &lt;br&gt;extension" style="rounded=1;whiteSpace=wrap;html=1;align=right;fillColor=#E6E6E6;strokeColor=#808080;fontColor=#333333;" vertex="1" parent="dQZulvzeQqhADhMms8IM-1">&#xa;          <mxGeometry x="880" y="430" width="320" height="160" as="geometry"/>&#xa;        </mxCell>&#xa;        <mxCell id="dQZulvzeQqhADhMms8IM-3" value="Azure DevOps" style="rounded=1;whiteSpace=wrap;html=1;align=right;fillColor=#f5f5f5;strokeColor=#808080;fontColor=#333333;" vertex="1" parent="dQZulvzeQqhADhMms8IM-1">&#xa;          <mxGeometry x="880" y="190" width="320" height="300" as="geometry"/>&#xa;        </mxCell>&#xa;        <mxCell id="dQZulvzeQqhADhMms8IM-4" value="Azure" style="rounded=1;whiteSpace=wrap;html=1;align=left;fillColor=#f5f5f5;strokeColor=#808080;fontColor=#333333;" vertex="1" parent="dQZulvzeQqhADhMms8IM-1">&#xa;          <mxGeometry x="220" y="180" width="350" height="360" as="geometry"/>&#xa;        </mxCell>&#xa;        <mxCell id="dQZulvzeQqhADhMms8IM-6" value="" style="edgeStyle=orthogonalEdgeStyle;rounded=0;orthogonalLoop=1;jettySize=auto;html=1;entryX=0;entryY=0.5;entryDx=0;entryDy=0;" edge="1" parent="dQZulvzeQqhADhMms8IM-1" source="dQZulvzeQqhADhMms8IM-10" target="dQZulvzeQqhADhMms8IM-20">&#xa;          <mxGeometry relative="1" as="geometry"/>&#xa;        </mxCell>&#xa;        <mxCell id="dQZulvzeQqhADhMms8IM-7" value="VstsRestClient" style="text;html=1;resizable=0;points=[];align=center;verticalAlign=middle;labelBackgroundColor=#ffffff;" vertex="1" connectable="0" parent="dQZulvzeQqhADhMms8IM-6">&#xa;          <mxGeometry x="0.3228" y="-2" relative="1" as="geometry">&#xa;            <mxPoint x="-2" y="8" as="offset"/>&#xa;          </mxGeometry>&#xa;        </mxCell>&#xa;        <mxCell id="dQZulvzeQqhADhMms8IM-10" value="Create &amp;amp; Delete&lt;br&gt;Hooks Functions" style="rounded=0;whiteSpace=wrap;html=1;strokeWidth=5;" vertex="1" parent="dQZulvzeQqhADhMms8IM-1">&#xa;          <mxGeometry x="320" y="300" width="120" height="60" as="geometry"/>&#xa;        </mxCell>&#xa;        <mxCell id="dQZulvzeQqhADhMms8IM-14" value="Azure DevOps&lt;br&gt;Extension Management Data Storage" style="rounded=0;whiteSpace=wrap;html=1;" vertex="1" parent="dQZulvzeQqhADhMms8IM-1">&#xa;          <mxGeometry x="920" y="390" width="120" height="60" as="geometry"/>&#xa;        </mxCell>&#xa;        <mxCell id="dQZulvzeQqhADhMms8IM-38" style="edgeStyle=orthogonalEdgeStyle;rounded=0;orthogonalLoop=1;jettySize=auto;html=1;exitX=0.5;exitY=0;exitDx=0;exitDy=0;" edge="1" parent="dQZulvzeQqhADhMms8IM-1" source="dQZulvzeQqhADhMms8IM-20" target="dQZulvzeQqhADhMms8IM-28">&#xa;          <mxGeometry relative="1" as="geometry"/>&#xa;        </mxCell>&#xa;        <mxCell id="dQZulvzeQqhADhMms8IM-20" value="Azure DevOps&lt;br&gt;REST API" style="rounded=0;whiteSpace=wrap;html=1;" vertex="1" parent="dQZulvzeQqhADhMms8IM-1">&#xa;          <mxGeometry x="920" y="300" width="120" height="60" as="geometry"/>&#xa;        </mxCell>&#xa;        <mxCell id="dQZulvzeQqhADhMms8IM-26" value="" style="edgeStyle=orthogonalEdgeStyle;rounded=0;orthogonalLoop=1;jettySize=auto;html=1;" edge="1" parent="dQZulvzeQqhADhMms8IM-1" source="dQZulvzeQqhADhMms8IM-28" target="dQZulvzeQqhADhMms8IM-30">&#xa;          <mxGeometry relative="1" as="geometry"/>&#xa;        </mxCell>&#xa;        <mxCell id="dQZulvzeQqhADhMms8IM-27" value="build &amp;amp; release completed events" style="text;html=1;resizable=0;points=[];align=center;verticalAlign=middle;labelBackgroundColor=#ffffff;" vertex="1" connectable="0" parent="dQZulvzeQqhADhMms8IM-26">&#xa;          <mxGeometry x="-0.0214" y="1" relative="1" as="geometry">&#xa;            <mxPoint x="1" y="9" as="offset"/>&#xa;          </mxGeometry>&#xa;        </mxCell>&#xa;        <mxCell id="dQZulvzeQqhADhMms8IM-28" value="Azure DevOps&lt;br&gt;Service Hooks" style="rounded=0;whiteSpace=wrap;html=1;" vertex="1" parent="dQZulvzeQqhADhMms8IM-1">&#xa;          <mxGeometry x="920" y="210" width="120" height="60" as="geometry"/>&#xa;        </mxCell>&#xa;        <mxCell id="dQZulvzeQqhADhMms8IM-29" style="edgeStyle=orthogonalEdgeStyle;rounded=0;orthogonalLoop=1;jettySize=auto;html=1;entryX=0.5;entryY=0;entryDx=0;entryDy=0;exitX=0;exitY=0.5;exitDx=0;exitDy=0;" edge="1" parent="dQZulvzeQqhADhMms8IM-1" source="dQZulvzeQqhADhMms8IM-30" target="dQZulvzeQqhADhMms8IM-10">&#xa;          <mxGeometry relative="1" as="geometry"/>&#xa;        </mxCell>&#xa;        <mxCell id="dQZulvzeQqhADhMms8IM-30" value="Storage queue" style="rounded=0;whiteSpace=wrap;html=1;" vertex="1" parent="dQZulvzeQqhADhMms8IM-1">&#xa;          <mxGeometry x="430" y="210" width="120" height="60" as="geometry"/>&#xa;        </mxCell>&#xa;        <mxCell id="rMl-RP5grhkWgzoDlrxp-0" value="Azure DevOps&lt;br&gt;Compliancy&lt;br&gt;Frontend" style="rounded=0;whiteSpace=wrap;html=1;" vertex="1" parent="dQZulvzeQqhADhMms8IM-1">&#xa;          <mxGeometry x="920" y="510" width="120" height="60" as="geometry"/>&#xa;        </mxCell>&#xa;      </root>&#xa;    </mxGraphModel>&#xa;  </diagram><diagram name="completeness" id="uVb3EqGYo8kxW31qxcvx">&#xa;    <mxGraphModel dx="1132" dy="672" grid="1" gridSize="10" guides="1" tooltips="1" connect="1" arrows="1" fold="1" page="1" pageScale="1" pageWidth="850" pageHeight="1100" math="0" shadow="0">&#xa;      <root>&#xa;        <mxCell id="MQ6FGGwSsxCammQS5fSB-0"/>&#xa;        <mxCell id="MQ6FGGwSsxCammQS5fSB-1" parent="MQ6FGGwSsxCammQS5fSB-0"/>&#xa;        <mxCell id="MQ6FGGwSsxCammQS5fSB-2" value="Azure DevOps &lt;br&gt;extension" style="rounded=1;whiteSpace=wrap;html=1;align=right;fillColor=#E6E6E6;strokeColor=#808080;fontColor=#333333;" vertex="1" parent="MQ6FGGwSsxCammQS5fSB-1">&#xa;          <mxGeometry x="880" y="430" width="320" height="160" as="geometry"/>&#xa;        </mxCell>&#xa;        <mxCell id="MQ6FGGwSsxCammQS5fSB-3" value="Azure DevOps" style="rounded=1;whiteSpace=wrap;html=1;align=right;fillColor=#f5f5f5;strokeColor=#808080;fontColor=#333333;" vertex="1" parent="MQ6FGGwSsxCammQS5fSB-1">&#xa;          <mxGeometry x="880" y="190" width="320" height="300" as="geometry"/>&#xa;        </mxCell>&#xa;        <mxCell id="MQ6FGGwSsxCammQS5fSB-4" value="Azure" style="rounded=1;whiteSpace=wrap;html=1;align=left;fillColor=#f5f5f5;strokeColor=#808080;fontColor=#333333;" vertex="1" parent="MQ6FGGwSsxCammQS5fSB-1">&#xa;          <mxGeometry x="220" y="180" width="350" height="360" as="geometry"/>&#xa;        </mxCell>&#xa;        <mxCell id="MQ6FGGwSsxCammQS5fSB-8" value="" style="edgeStyle=orthogonalEdgeStyle;rounded=0;orthogonalLoop=1;jettySize=auto;html=1;" edge="1" parent="MQ6FGGwSsxCammQS5fSB-1" source="MQ6FGGwSsxCammQS5fSB-10" target="MQ6FGGwSsxCammQS5fSB-12">&#xa;          <mxGeometry relative="1" as="geometry"/>&#xa;        </mxCell>&#xa;        <mxCell id="MQ6FGGwSsxCammQS5fSB-9" value="LogAnalyticsClient" style="text;html=1;resizable=0;points=[];align=center;verticalAlign=middle;labelBackgroundColor=none;" vertex="1" connectable="0" parent="MQ6FGGwSsxCammQS5fSB-8">&#xa;          <mxGeometry x="0.225" y="3" relative="1" as="geometry">&#xa;            <mxPoint x="-63" y="-9" as="offset"/>&#xa;          </mxGeometry>&#xa;        </mxCell>&#xa;        <mxCell id="MQ6FGGwSsxCammQS5fSB-10" value="Completeness Functions" style="rounded=0;whiteSpace=wrap;html=1;strokeWidth=5;" vertex="1" parent="MQ6FGGwSsxCammQS5fSB-1">&#xa;          <mxGeometry x="320" y="300" width="120" height="60" as="geometry"/>&#xa;        </mxCell>&#xa;        <mxCell id="MQ6FGGwSsxCammQS5fSB-12" value="LogAnalytics" style="rounded=0;whiteSpace=wrap;html=1;" vertex="1" parent="MQ6FGGwSsxCammQS5fSB-1">&#xa;          <mxGeometry x="320" y="440" width="120" height="60" as="geometry"/>&#xa;        </mxCell>&#xa;        <mxCell id="MQ6FGGwSsxCammQS5fSB-14" value="Azure DevOps&lt;br&gt;Extension Management Data Storage" style="rounded=0;whiteSpace=wrap;html=1;" vertex="1" parent="MQ6FGGwSsxCammQS5fSB-1">&#xa;          <mxGeometry x="920" y="390" width="120" height="60" as="geometry"/>&#xa;        </mxCell>&#xa;        <mxCell id="MQ6FGGwSsxCammQS5fSB-20" value="Azure DevOps&lt;br&gt;REST API" style="rounded=0;whiteSpace=wrap;html=1;" vertex="1" parent="MQ6FGGwSsxCammQS5fSB-1">&#xa;          <mxGeometry x="920" y="300" width="120" height="60" as="geometry"/>&#xa;        </mxCell>&#xa;        <mxCell id="MQ6FGGwSsxCammQS5fSB-25" value="Azure DevOps&lt;br&gt;Compliancy&lt;br&gt;Frontend" style="rounded=0;whiteSpace=wrap;html=1;" vertex="1" parent="MQ6FGGwSsxCammQS5fSB-1">&#xa;          <mxGeometry x="920" y="510" width="120" height="60" as="geometry"/>&#xa;        </mxCell>&#xa;        <mxCell id="MQ6FGGwSsxCammQS5fSB-28" value="Azure DevOps&lt;br&gt;Service Hooks" style="rounded=0;whiteSpace=wrap;html=1;" vertex="1" parent="MQ6FGGwSsxCammQS5fSB-1">&#xa;          <mxGeometry x="920" y="210" width="120" height="60" as="geometry"/>&#xa;        </mxCell>&#xa;        <mxCell id="Ng-c6cMRA_HLK9E7OqwL-0" style="edgeStyle=orthogonalEdgeStyle;rounded=0;orthogonalLoop=1;jettySize=auto;html=1;exitX=1;exitY=0.5;exitDx=0;exitDy=0;entryX=0.5;entryY=0;entryDx=0;entryDy=0;" edge="1" parent="MQ6FGGwSsxCammQS5fSB-1" source="MQ6FGGwSsxCammQS5fSB-10" target="MQ6FGGwSsxCammQS5fSB-10">&#xa;          <mxGeometry relative="1" as="geometry">&#xa;            <Array as="points">&#xa;              <mxPoint x="460" y="330"/>&#xa;              <mxPoint x="460" y="270"/>&#xa;              <mxPoint x="380" y="270"/>&#xa;            </Array>&#xa;          </mxGeometry>&#xa;        </mxCell>&#xa;        <mxCell id="Ng-c6cMRA_HLK9E7OqwL-1" value="DurableOrchestrationClient" style="text;html=1;resizable=0;points=[];align=center;verticalAlign=middle;labelBackgroundColor=none;" vertex="1" connectable="0" parent="Ng-c6cMRA_HLK9E7OqwL-0">&#xa;          <mxGeometry x="-0.1684" y="-2" relative="1" as="geometry">&#xa;            <mxPoint x="-2" y="-11" as="offset"/>&#xa;          </mxGeometry>&#xa;        </mxCell>&#xa;      </root>&#xa;    </mxGraphModel>&#xa;  </diagram><diagram name="sm9" id="sbar7I2ikVv-O5kukXF4">7Vxbc9o4FP41zOw+JOM75jEEaHcmne002W7Tl45jC3BjLFaWueTXr4Ql32SDAd/S3TDT2LrVPpfvfOdIZKDer3YfkLVefoIO8AaK5OwG6mSgKLIsGeQXbdlHLUN1GDUskOuwQUnDo/sGWKPEWkPXAUFmIIbQw+4622hD3wc2zrRZCMFtdtgcetn/dW0tgNDwaFue2Pq36+Bl1GrqUtL+EbiLJY5fmPWsLD6YNQRLy4HbVJM6Haj3CEIcXa1298CjwuNyeZmAv7ynh+/w5W2z0n9+vfm6md5Ei83OmRK/AgI+rndp1YzW3lheyAR29xYiwN4Y77kYEQx9B9Cl5IE63i5dDB7Xlk17t8RwSNsSrzzWbXnuwifXHpiT5x3PXc+7hx5Eh6XUuU4/pD3ACL6CVI8p0Q+dAX2cao9+SHtFQTCBbQDCYJcyAyaYDwCuAEZ7MoT1KirTMTNy2WT328RkVG4yy5S5qAZrtJiZLuK1E1WQC6aNMzSjGYJmoH+zRmD1H9eNXlU3sjJqSDe6JnrN4/Q6vXjWC/DGlv26OEzjEvahD0StNSZrU8/IOpZ9StaKpouyjgfWLmulDKCkCdj8SYIIxWLDo1J5QeRqQa/ADgM/cKFfj6+g6EXzzjI16KdXziKrOW/RCjSoKkXe0hiSqSc12KCOeghogo7kUUUdqVJj0eZ/GkB6jGHvaIAuKEbQCXAI4WW3EOElXEDf8qZJ6zjRGpVqMuYBwjXT1U+A8Z6xdyvEMKvJ8wQewBDZ4Ng4Ji1soQU4uiDLNegrHlUgAp6F3U2W89euDJGSdaEMogO0/8bmH26e6c2tzm8nu3TnZM/uOlOiVrcSD1PvELL2qQFr6Po4SK38mTYkzj0aZZ2bo/Cs4nhNkXIGFD1BYk7xq1xuYUPBwr4GOPgCAnzvuVRveXsjyIaz5oFA4L5ZL4cBVO1MLmS0Ph7okxQu22RBQLB1TBHSJSnzHetYuY5zsNUSUkrR+/BT3aq46+SxOE782RMP0rl1EUZLtyqhqRnNcI54nv0ICufLsFXN7Hw4nwcACxBSg87FFLwLVLFDtIkDe2dQofQK7/lzH6Gu+czjHq7Wnmv5Nn3KWejbmGQhxyiudJpHRQSJV6/0BgnQMJf/xYQzRYDkImbaGP+RZUEFvwIBUqo6hNovhxCz8Qe4uCOS3JMAcqWZN2XUppEL5FqLRj1eh09/Phjz6d3oGT19/L6e/xjybOs90cacAdboC9qoqi+UEIN2TJ8/Zsr0nw6cRZEeMUR0F6KX1j+UOrT+o5iWkuRnuAVo/Ec/JZjHj6ICdMsSLC3XlPKSaVIRlT5ZPjHX1SGdkCYWtvpuw7KaK8yoBRWzllXQj8JMX2oBw4oYznVUcy1AyOWIMRRn+/Ea0aOyafUndbJYK/pFMvnY8q9O5W9ILi83k8vL1AU6yeZlsYTzJfRAT7mxLOm9y/jMToB05+JvqesUjJK7BEXpDQfRJksmStWSiaI3gqjnVldlXS4G3LLyqjBBG56YoOW3NrMTminIyiLtx/AVEBplWCvqpP5LsD6oP2JcwdryOecazKTBaDYYaYORzPvJQ2SGCEStH3GBHTtAEFu0gEVabkbn8AZe06wjRpAUxsgovp4QkY87SlsRgrv2Gez9y/TxiXTffe5piiQS9M7DiNKPwmFC0BNO/pzuKyHoAQF+fEfPP1I39qwgcG3ePHO9ZHmHD2IuS1pYfwM8nwebrvb8CoKClkvO5XZ5PreqlJkhsCaGIhK+LoG8oh0oZZ5/EW6b5qgWpI4Rk2M1D8otYLXaJ9CQToBGZ97eTFZ/PgfNV+q0Uxw0N4EfgiubYGr6sfHNUFBFrPYR4LApiZRiGhr9exAx8VTbPRSmf9vSR8sx1YAABzFOItaQRGYajS0HoN/7AVcX1CO4i9ZxtEBWTDlHC+tBMGOUtZv2yKZYpzxnCzvfN0OQaNZ33gkNjdlAdzS0H2fG6o4MZsXIoNYeGa7ThlicewldzylBUg9YATjgCPEIgA+oCTbA7wu5uwQtazuIRRiepHCev8+sdC2pz6zZHtcr/S5UKVQ+ArRxbTriI4Svfa3x5lFR6R4VR12A4KW0mteG+XWV2nDNgMtxtAMqft13P8RaV7zTLP0TgrCnO86m2TeX0bvJRC/YFrl0T7rJ7RSNf/X4lP/wYz4dp7JGruShnshk8+Nb2RvhQk079yciv/jc63W+3d6xV1XLbjConXu7NuzS2xMPf071tBLouCZOO6rRr0An7hO+J4pzuRYLD7gWKLFwXDN71wI6alK2bKfp8fGQlrYJNJEHzbwQeQX7v5lN4z5kmedtIcSOUEM5TlFyh1MGtaSXw8yiN3J+y6iWFPOYvecD5uz+00Tc+L+ACBcIvZpPHwmNWRUYssZdp7Pj82JJbbpbE0co2jiHIRZTjCyzUHK0Y2mt6bjVbkH/Is7t3INbe2khfOu4iJjvD4eemC1WSMl5iQbUkiuScL6XUYphtqgUsbLWTfyrsh/e4JcZmgpgWYKqabnzjCXh62QkjEtDfKHoDeuIg4VWIpbY3mcYrBzdsrZV7jntR8GsRcXVz2uCILlN/hxWNDz5o2Lq9F8=</diagram></mxfile>